<?xml version="1.0" encoding="utf-8"?>
<!-- Generator: Adobe Illustrator 18.0.0, SVG Export Plug-In . SVG Version: 6.00 Build 0)  -->
<!DOCTYPE svg PUBLIC "-//W3C//DTD SVG 1.1//EN" "http://www.w3.org/Graphics/SVG/1.1/DTD/svg11.dtd">
<svg version="1.1" id="Layer_1" xmlns="http://www.w3.org/2000/svg" xmlns:xlink="http://www.w3.org/1999/xlink" x="0px" y="0px"
	 viewBox="0 0 163.3 56" enable-background="new 0 0 163.3 56" xml:space="preserve">
<g>
	<path fill="#E2231A" d="M130.7,17l-7.2-5.4l4.4,8.2c-1.6,0.8-2.9,1.2-4.3,1.3c-5.1,0.3-9.5-3.7-9.8-8.8c-0.3-5.1,3.7-9.5,8.8-9.8
		c5.1-0.3,9.5,3.7,9.8,8.8C132.5,13,131.4,15.6,130.7,17"/>
	<path fill="#1D1D1B" d="M139.3,30.3l7.4,5.2l-5-7.7c1.2-0.5,3.6-1.6,5.1-1.6c5.1,0,9.3,4.2,9.3,9.4c0,5.2-4.2,9.3-9.4,9.3
		c-5.1,0-9.3-4.2-9.3-9.4C137.4,33.7,138.5,31.7,139.3,30.3"/>
	<path fill="#1D1D1B" d="M19.8,32.1c-0.9-0.5-2.3-0.8-3.3-0.8c-0.7,0-1.9,0.3-1.9,1.2c0,1.2,1.9,1.4,2.8,1.5c2.9,0.6,5,1.9,5,5.1
		c0,4.5-4.1,6.4-8.1,6.4c-2.5,0-4.9-0.7-6.9-2l2.2-4.3c1.2,0.9,3.3,1.7,4.8,1.7c0.8,0,1.9-0.4,1.9-1.3c0-1.3-1.9-1.4-3.8-1.9
		c-1.9-0.5-3.8-1.4-3.8-4.5c0-4.2,3.8-6.1,7.6-6.1c1.9,0,3.9,0.3,5.7,1.1L19.8,32.1z"/>
	<polygon fill="#1D1D1B" points="33.3,44.9 27.2,44.9 27.2,32.7 25.2,32.7 25.2,27.7 27.2,27.7 27.2,22.5 33.3,22.5 33.3,27.7 
		36.8,27.7 36.8,32.7 33.3,32.7 	"/>
	<path fill="#1D1D1B" d="M45.8,30.5L45.8,30.5c1.2-2.1,3.3-3,5.6-3h1.2v5.9c-0.8-0.5-1.6-0.6-2.6-0.6c-3.4,0-4.2,2.3-4.2,5.2v6.9
		h-6.1V27.7h6.1V30.5z"/>
	<path fill="#1D1D1B" d="M74.8,44.9h-6.1V43h-0.1c-1.1,1.7-3.2,2.5-5.2,2.5c-5.1,0-8.7-4.3-8.7-9.2c0-4.9,3.5-9.2,8.6-9.2
		c2,0,4.1,0.7,5.3,2.2v-1.7h6.1V44.9z M61,36.3c0,2.2,1.4,3.9,3.9,3.9c2.5,0,3.9-1.7,3.9-3.9c0-2.1-1.4-3.9-3.9-3.9
		C62.4,32.4,61,34.2,61,36.3"/>
	<polygon fill="#1D1D1B" points="86.5,44.9 80.4,44.9 80.4,32.7 78.4,32.7 78.4,27.7 80.4,27.7 80.4,22.5 86.5,22.5 86.5,27.7 
		90,27.7 90,32.7 86.5,32.7 	"/>
	<path fill="#1D1D1B" d="M110.6,37.3H97.8c0,2.5,1.3,3.8,3.8,3.8c1.3,0,2.3-0.4,2.9-1.6h5.9c-1,4.1-4.8,5.9-8.8,5.9
		c-5.7,0-10-3.2-10-9.2c0-5.7,3.9-9.2,9.5-9.2c6,0,9.4,3.7,9.4,9.6V37.3z M105,33.8c-0.3-1.6-1.8-2.7-3.5-2.7
		c-1.8,0-3.3,0.9-3.6,2.7H105z"/>
	<path fill="#1D1D1B" d="M133.3,43.2c0,7.3-3.6,10.3-10,10.3c-4,0-9.3-2-9.8-6.6h6.9c0.2,0.6,0.6,1,1.1,1.3c0.5,0.3,1.2,0.4,1.7,0.4
		c3.3,0,3.9-2.1,3.9-4.9v-0.8c-1.6,1.6-3.2,2.3-5.5,2.3c-5,0-8.5-3.8-8.5-8.8c0-5,3.6-9.3,8.8-9.3c2,0,3.9,0.7,5.1,2.4h0.1v-1.8h6.1
		V43.2z M119.6,36.2c0,2.2,1.4,3.9,3.9,3.9c2.5,0,3.9-1.7,3.9-3.9c0-2.1-1.4-3.9-3.9-3.9C121,32.3,119.6,34.1,119.6,36.2"/>
</g>
</svg>
